<?xml version="1.0" encoding="utf-8"?>
<!-- Generator: Adobe Illustrator 27.1.1, SVG Export Plug-In . SVG Version: 6.00 Build 0)  -->
<svg version="1.1" id="레이어_1" xmlns="http://www.w3.org/2000/svg" xmlns:xlink="http://www.w3.org/1999/xlink" x="0px"
	 y="0px" viewBox="0 0 512 512" style="enable-background:new 0 0 512 512;" xml:space="preserve">
<style type="text/css">
	.st0{fill:#7E0B48;}
</style>
<path class="st0" d="M407.8,224.6c-23.9,0-45.4,10.2-60.4,26.5C344.8,163.5,273,93.2,184.7,93.2C94.8,93.2,22,166.1,22,256
	c0,89.9,72.9,162.8,162.8,162.8c46,0,87.6-19.1,117.1-49.9l-24.5-104.2l-65.9,104.2l-63.9-104.2l-23.5,101H84.7L134,172.4
	l78.2,135.6l81-135.7L327,321.2c1.5,6.4,4.9,18.9,11.5,29.8c1.9,3,4,5.9,6.3,8.7c0,0,0,0,0,0.1c15.1,17.9,37.7,29.3,62.9,29.3
	c45.3,0,82.2-36.9,82.2-82.2C490,261.5,453.1,224.6,407.8,224.6 M407.8,350.8c-24.2,0-44-19.7-44-44c0-24.2,19.7-43.9,44-43.9
	c24.2,0,44,19.7,44,43.9C451.7,331.1,432,350.8,407.8,350.8"/>
</svg>
