<?xml version="1.0" encoding="utf-8"?>
<!-- Generator: Adobe Illustrator 27.1.1, SVG Export Plug-In . SVG Version: 6.00 Build 0)  -->
<svg version="1.1"
	 id="레이어_1" xmlns:dc="http://purl.org/dc/elements/1.1/" xmlns:cc="http://creativecommons.org/ns#" xmlns:rdf="http://www.w3.org/1999/02/22-rdf-syntax-ns#"
	 xmlns="http://www.w3.org/2000/svg" xmlns:xlink="http://www.w3.org/1999/xlink" x="0px" y="0px" viewBox="0 0 480 480"
	 style="enable-background:new 0 0 480 480;" xml:space="preserve">
<style type="text/css">
	.st0{fill:#7E0B48;}
	.st1{fill:#FFFFFF;}
</style>
<path class="st0" d="M413.3,464.4H66.7c-28,0-50.7-22.7-50.7-50.7V67c0-28,22.7-50.7,50.7-50.7h346.7c28,0,50.7,22.7,50.7,50.7
	v346.7C464,441.7,441.3,464.4,413.3,464.4z"/>
<path class="st1" d="M375.2,212.4c-21.3,0-40.4,9.1-53.8,23.6C319.1,158,255.2,95.4,176.5,95.4c-80.1,0-145,64.9-145,145
	c0,80.1,64.9,145,145,145c41,0,78-17.1,104.4-44.4l-21.8-92.8L200.4,341l-56.9-92.8l-20.9,90H87.4l44-172.2L201,286.8l72.1-120.9
	l30.2,132.6c1.3,5.7,4.4,16.8,10.3,26.6c1.7,2.7,3.6,5.3,5.6,7.7c0,0,0,0,0,0c13.4,16,33.6,26.1,56,26.1c40.4,0,73.3-32.9,73.3-73.3
	C448.5,245.3,415.6,212.4,375.2,212.4 M375.2,324.9c-21.6,0-39.2-17.6-39.2-39.2c0-21.6,17.6-39.1,39.2-39.1
	c21.6,0,39.2,17.6,39.2,39.1C414.4,307.3,396.8,324.9,375.2,324.9"/>
</svg>
