<?xml version="1.0" encoding="utf-8"?>
<!-- Generator: Adobe Illustrator 27.1.1, SVG Export Plug-In . SVG Version: 6.00 Build 0)  -->
<svg version="1.1" id="레이어_1" xmlns="http://www.w3.org/2000/svg" xmlns:xlink="http://www.w3.org/1999/xlink" x="0px"
	 y="0px" viewBox="0 0 47 18" style="enable-background:new 0 0 47 18;" xml:space="preserve">
<style type="text/css">
	.st0{fill:#7E0B48;}
</style>
<g>
	<path class="st0" d="M15.6,5.1c-0.8,0-1.4,0.3-1.9,0.8c-0.1-2.8-2.3-5-5.1-5c-2.8,0-5.1,2.3-5.1,5.1c0,2.8,2.3,5.1,5.1,5.1
		c1.4,0,2.8-0.6,3.7-1.6l-0.8-3.3L9.4,9.6l-2-3.3L6.7,9.5H5.4L7,3.4l2.5,4.3L12,3.4L13,8.1c0,0.2,0.2,0.6,0.4,0.9
		c0.1,0.1,0.1,0.2,0.2,0.3c0,0,0,0,0,0c0.5,0.6,1.2,0.9,2,0.9c1.4,0,2.6-1.2,2.6-2.6C18.2,6.2,17,5.1,15.6,5.1 M15.6,9
		c-0.8,0-1.4-0.6-1.4-1.4c0-0.8,0.6-1.4,1.4-1.4c0.8,0,1.4,0.6,1.4,1.4C17,8.4,16.3,9,15.6,9"/>
	<path class="st0" d="M23.9,7.7c0.2,0.1,0.3,0.2,0.5,0.3c0.1,0.2,0.2,0.4,0.2,0.7c0,0.2,0,0.4-0.1,0.5c-0.1,0.2-0.2,0.3-0.3,0.4
		c-0.1,0.1-0.3,0.2-0.5,0.3C23.4,10,23.1,10,22.8,10H19V7.3h3.8c0.1,0,0.2,0,0.3-0.1c0.1,0,0.1-0.1,0.1-0.2c0-0.1,0-0.2-0.1-0.2
		c-0.1,0-0.2-0.1-0.3-0.1H19l0.9-1.2h2.9c0.3,0,0.5,0,0.7,0.1c0.2,0.1,0.4,0.1,0.5,0.2c0.1,0.1,0.3,0.2,0.3,0.4
		c0.1,0.2,0.1,0.3,0.1,0.5c0,0.1,0,0.3-0.1,0.4c0,0.1-0.1,0.2-0.1,0.3c-0.1,0.1-0.1,0.1-0.2,0.2C24,7.7,23.9,7.7,23.9,7.7 M20.3,8.3
		v0.6h2.5c0.1,0,0.3,0,0.3-0.1c0.1-0.1,0.1-0.1,0.1-0.2c0-0.1,0-0.2-0.1-0.2c-0.1-0.1-0.2-0.1-0.3-0.1H20.3z"/>
	<path class="st0" d="M31.1,5.5l-2.6,3V10h-1.3V8.5l-2.6-3h1.7l1,1.3c0,0,0.1,0.1,0.1,0.2c0.1,0.1,0.1,0.1,0.2,0.2
		c0.1,0.1,0.1,0.1,0.2,0.2c0.1,0.1,0.1,0.1,0.1,0.1c0-0.1,0.1-0.1,0.2-0.3c0.1-0.1,0.2-0.3,0.4-0.5l1-1.2H31.1z"/>
	<path class="st0" d="M37.3,8.1c0,1.4-0.9,2-2.7,2c-0.5,0-1,0-1.3-0.1c-0.4-0.1-0.7-0.2-0.9-0.4c-0.2-0.2-0.4-0.4-0.5-0.6
		c-0.1-0.3-0.2-0.6-0.2-0.9V5.5H33v2.5c0,0.2,0,0.3,0.1,0.4c0,0.1,0.1,0.2,0.2,0.3c0.1,0.1,0.3,0.1,0.5,0.1c0.2,0,0.5,0,0.8,0
		c0.3,0,0.5,0,0.6,0c0.2,0,0.3-0.1,0.4-0.2c0.1-0.1,0.2-0.2,0.2-0.3c0-0.1,0.1-0.2,0.1-0.4V5.5h1.3V8.1z"/>
	<path class="st0" d="M41.9,7.3c0.5,0,0.9,0.1,1.2,0.3c0.3,0.2,0.4,0.5,0.4,0.9c0,0.2,0,0.4-0.1,0.6c-0.1,0.2-0.2,0.3-0.3,0.5
		c-0.2,0.1-0.3,0.2-0.6,0.3C42.3,10,42,10,41.7,10h-4l0.9-1.2h3.3c0.2,0,0.3,0,0.3-0.1c0.1-0.1,0.1-0.1,0.1-0.3c0-0.1,0-0.2-0.1-0.2
		c-0.1,0-0.2-0.1-0.3-0.1h-2.4c-0.3,0-0.5,0-0.7-0.1c-0.2-0.1-0.4-0.1-0.5-0.3c-0.1-0.1-0.2-0.2-0.3-0.4c-0.1-0.2-0.1-0.3-0.1-0.5
		c0-0.2,0-0.4,0.1-0.6C38,6.2,38.1,6,38.2,5.9c0.1-0.1,0.3-0.2,0.6-0.3c0.2-0.1,0.5-0.1,0.8-0.1h3.8l-0.9,1.2h-3
		c-0.2,0-0.3,0-0.3,0.1c-0.1,0-0.1,0.1-0.1,0.2c0,0.1,0,0.2,0.1,0.2c0.1,0,0.2,0.1,0.3,0.1H41.9z"/>
	<rect x="5.4" y="11.9" class="st0" width="38.1" height="0.4"/>
	<rect x="5.4" y="12.9" class="st0" width="38.1" height="0.4"/>
	<path class="st0" d="M6.9,16.4l-0.4-0.8H6.2v0.8H5.8v-2.1h0.7c0.4,0,0.8,0.1,0.8,0.6c0,0.3-0.2,0.5-0.4,0.6l0.5,0.9H6.9z M6.2,15.3
		h0.3c0.3,0,0.4-0.1,0.4-0.3c0-0.2-0.1-0.3-0.4-0.3H6.2V15.3z"/>
	<path class="st0" d="M7.5,15.6c0-0.5,0.4-0.8,0.8-0.8c0.4,0,0.8,0.3,0.8,0.8c0,0.5-0.4,0.8-0.8,0.8C7.9,16.4,7.5,16.1,7.5,15.6
		 M8.6,15.6c0-0.3-0.1-0.5-0.3-0.5c-0.2,0-0.3,0.2-0.3,0.5c0,0.3,0.1,0.5,0.3,0.5C8.5,16.1,8.6,15.9,8.6,15.6"/>
	<path class="st0" d="M9.6,16.2L9.6,16.2l0,0.2H9.3v-2.2h0.4v0.6l0,0.3c0.1-0.1,0.3-0.2,0.4-0.2c0.4,0,0.6,0.3,0.6,0.8
		c0,0.5-0.3,0.9-0.7,0.9C9.9,16.4,9.8,16.3,9.6,16.2 M10.3,15.6c0-0.3-0.1-0.5-0.3-0.5c-0.1,0-0.2,0.1-0.3,0.2V16
		c0.1,0.1,0.2,0.1,0.3,0.1C10.2,16.1,10.3,15.9,10.3,15.6"/>
	<path class="st0" d="M10.9,15.6c0-0.5,0.4-0.8,0.8-0.8c0.4,0,0.8,0.3,0.8,0.8c0,0.5-0.4,0.8-0.8,0.8C11.3,16.4,10.9,16.1,10.9,15.6
		 M12,15.6c0-0.3-0.1-0.5-0.3-0.5c-0.2,0-0.3,0.2-0.3,0.5c0,0.3,0.1,0.5,0.3,0.5C11.9,16.1,12,15.9,12,15.6"/>
	<path class="st0" d="M12.8,15.8v-0.7h-0.2v-0.3l0.2,0l0-0.4h0.3v0.4h0.4v0.3h-0.4v0.7c0,0.2,0.1,0.3,0.2,0.3c0.1,0,0.1,0,0.2,0
		l0.1,0.3c-0.1,0-0.2,0.1-0.3,0.1C12.9,16.4,12.8,16.2,12.8,15.8"/>
	<path class="st0" d="M13.8,14.8h0.4v1.6h-0.4V14.8z M14.2,14.5h-0.4v-0.4h0.4V14.5z"/>
	<path class="st0" d="M14.4,15.6c0-0.5,0.4-0.8,0.8-0.8c0.2,0,0.3,0.1,0.5,0.2l-0.2,0.3c-0.1-0.1-0.2-0.1-0.2-0.1
		c-0.2,0-0.4,0.2-0.4,0.5c0,0.2,0.1,0.5,0.4,0.5c0.1,0,0.2-0.1,0.3-0.1l0.2,0.3c-0.1,0.1-0.3,0.2-0.5,0.2
		C14.7,16.4,14.4,16.1,14.4,15.6"/>
	<path class="st0" d="M15.8,16.2l0.2-0.3c0.1,0.1,0.3,0.2,0.4,0.2c0.2,0,0.2-0.1,0.2-0.2c0-0.1-0.2-0.2-0.3-0.2
		c-0.2-0.1-0.4-0.2-0.4-0.5c0-0.3,0.2-0.5,0.6-0.5c0.2,0,0.4,0.1,0.5,0.2l-0.2,0.3c-0.1-0.1-0.2-0.1-0.3-0.1c-0.1,0-0.2,0.1-0.2,0.2
		c0,0.1,0.2,0.2,0.3,0.2c0.2,0.1,0.4,0.2,0.4,0.5c0,0.3-0.2,0.5-0.6,0.5C16.2,16.4,15.9,16.3,15.8,16.2"/>
	<path class="st0" d="M18.1,15.2c-0.1-0.1-0.2-0.3-0.2-0.4c0-0.3,0.2-0.5,0.6-0.5c0.3,0,0.5,0.2,0.6,0.4c0,0.3-0.2,0.4-0.4,0.6
		l0.4,0.5c0.1-0.1,0.1-0.3,0.1-0.4l0.3,0c0,0.2-0.1,0.5-0.2,0.6l0.3,0.4h-0.4L19,16.2c-0.1,0.1-0.3,0.2-0.5,0.2
		c-0.5,0-0.8-0.2-0.8-0.6C17.7,15.5,17.8,15.3,18.1,15.2 M18.3,15.4c-0.1,0.1-0.2,0.2-0.2,0.4c0,0.2,0.2,0.4,0.4,0.4
		c0.1,0,0.3-0.1,0.4-0.1L18.3,15.4z M18.4,15.1c0.1-0.1,0.3-0.2,0.3-0.4c0-0.1-0.1-0.2-0.2-0.2c-0.1,0-0.2,0.1-0.2,0.2
		C18.3,14.9,18.3,15,18.4,15.1L18.4,15.1z"/>
	<polygon class="st0" points="20.3,14.3 20.8,14.3 20.8,16 21.6,16 21.6,16.4 20.3,16.4 	"/>
	<path class="st0" d="M21.8,15.6c0-0.5,0.4-0.8,0.8-0.8c0.4,0,0.8,0.3,0.8,0.8c0,0.5-0.4,0.8-0.8,0.8C22.1,16.4,21.8,16.1,21.8,15.6
		 M22.8,15.6c0-0.3-0.1-0.5-0.3-0.5c-0.2,0-0.3,0.2-0.3,0.5c0,0.3,0.1,0.5,0.3,0.5C22.7,16.1,22.8,15.9,22.8,15.6"/>
	<path class="st0" d="M23.4,16.7c0-0.1,0.1-0.2,0.2-0.3v0c-0.1-0.1-0.1-0.1-0.1-0.3c0-0.1,0.1-0.2,0.2-0.3v0
		c-0.1-0.1-0.2-0.2-0.2-0.4c0-0.4,0.3-0.6,0.6-0.6c0.1,0,0.2,0,0.2,0h0.6v0.3h-0.3c0,0.1,0.1,0.1,0.1,0.2c0,0.4-0.3,0.5-0.6,0.5
		c-0.1,0-0.1,0-0.2,0c0,0-0.1,0.1-0.1,0.1c0,0.1,0.1,0.1,0.2,0.1h0.3c0.4,0,0.6,0.1,0.6,0.4c0,0.3-0.3,0.6-0.9,0.6
		C23.7,17.1,23.4,16.9,23.4,16.7 M24.6,16.6c0-0.1-0.1-0.1-0.3-0.1h-0.2c-0.1,0-0.2,0-0.2,0c-0.1,0.1-0.1,0.1-0.1,0.2
		c0,0.1,0.1,0.2,0.4,0.2C24.4,16.8,24.6,16.7,24.6,16.6 M24.4,15.3c0-0.2-0.1-0.3-0.2-0.3c-0.1,0-0.2,0.1-0.2,0.3
		c0,0.2,0.1,0.3,0.2,0.3C24.3,15.6,24.4,15.5,24.4,15.3"/>
	<path class="st0" d="M25.1,14.8h0.4v1.6h-0.4V14.8z M25.5,14.5h-0.4v-0.4h0.4V14.5z"/>
	<path class="st0" d="M25.7,16.2l0.2-0.3c0.1,0.1,0.3,0.2,0.4,0.2c0.2,0,0.2-0.1,0.2-0.2c0-0.1-0.2-0.2-0.3-0.2
		c-0.2-0.1-0.4-0.2-0.4-0.5c0-0.3,0.2-0.5,0.6-0.5c0.2,0,0.4,0.1,0.5,0.2l-0.2,0.3c-0.1-0.1-0.2-0.1-0.3-0.1c-0.1,0-0.2,0.1-0.2,0.2
		c0,0.1,0.2,0.2,0.3,0.2c0.2,0.1,0.4,0.2,0.4,0.5c0,0.3-0.2,0.5-0.6,0.5C26.1,16.4,25.9,16.3,25.7,16.2"/>
	<path class="st0" d="M27.2,15.8v-0.7H27v-0.3l0.2,0l0-0.4h0.3v0.4H28v0.3h-0.4v0.7c0,0.2,0.1,0.3,0.2,0.3c0.1,0,0.1,0,0.2,0
		l0.1,0.3c-0.1,0-0.2,0.1-0.3,0.1C27.4,16.4,27.2,16.2,27.2,15.8"/>
	<path class="st0" d="M28.2,14.8h0.4v1.6h-0.4V14.8z M28.7,14.5h-0.4v-0.4h0.4V14.5z"/>
	<path class="st0" d="M28.9,15.6c0-0.5,0.4-0.8,0.8-0.8c0.2,0,0.3,0.1,0.5,0.2L30,15.2c-0.1-0.1-0.2-0.1-0.2-0.1
		c-0.2,0-0.4,0.2-0.4,0.5c0,0.2,0.1,0.5,0.4,0.5c0.1,0,0.2-0.1,0.3-0.1l0.2,0.3c-0.1,0.1-0.3,0.2-0.5,0.2
		C29.2,16.4,28.9,16.1,28.9,15.6"/>
	<path class="st0" d="M30.2,16.2l0.2-0.3c0.1,0.1,0.3,0.2,0.4,0.2c0.2,0,0.2-0.1,0.2-0.2c0-0.1-0.2-0.2-0.3-0.2
		c-0.2-0.1-0.4-0.2-0.4-0.5c0-0.3,0.2-0.5,0.6-0.5c0.2,0,0.4,0.1,0.5,0.2l-0.2,0.3c-0.1-0.1-0.2-0.1-0.3-0.1c-0.1,0-0.2,0.1-0.2,0.2
		c0,0.1,0.2,0.2,0.3,0.2c0.2,0.1,0.4,0.2,0.4,0.5c0,0.3-0.2,0.5-0.6,0.5C30.6,16.4,30.4,16.3,30.2,16.2"/>
	<path class="st0" d="M32.2,16.1l0.2-0.3c0.1,0.1,0.3,0.2,0.5,0.2c0.2,0,0.3-0.1,0.3-0.2c0-0.2-0.1-0.2-0.3-0.3l-0.3-0.1
		c-0.2-0.1-0.4-0.3-0.4-0.6c0-0.3,0.3-0.6,0.7-0.6c0.2,0,0.5,0.1,0.7,0.3l-0.2,0.3c-0.1-0.1-0.3-0.2-0.4-0.2c-0.2,0-0.3,0.1-0.3,0.2
		c0,0.1,0.1,0.2,0.3,0.3l0.3,0.1c0.3,0.1,0.4,0.3,0.4,0.6c0,0.3-0.3,0.6-0.8,0.6C32.7,16.4,32.4,16.3,32.2,16.1"/>
	<path class="st0" d="M33.9,15.6c0-0.5,0.4-0.8,0.8-0.8c0.4,0,0.8,0.3,0.8,0.8c0,0.5-0.4,0.8-0.8,0.8C34.2,16.4,33.9,16.1,33.9,15.6
		 M35,15.6c0-0.3-0.1-0.5-0.3-0.5c-0.2,0-0.3,0.2-0.3,0.5c0,0.3,0.1,0.5,0.3,0.5C34.8,16.1,35,15.9,35,15.6"/>
	<rect x="35.6" y="14.1" class="st0" width="0.4" height="2.2"/>
	<path class="st0" d="M36.4,15.8v-1h0.4v0.9c0,0.2,0.1,0.3,0.2,0.3c0.1,0,0.2-0.1,0.3-0.2v-1.1h0.4v1.6h-0.3l0-0.2h0
		c-0.1,0.2-0.3,0.3-0.5,0.3C36.6,16.4,36.4,16.2,36.4,15.8"/>
	<path class="st0" d="M38.2,15.8v-0.7H38v-0.3l0.2,0l0-0.4h0.3v0.4H39v0.3h-0.4v0.7c0,0.2,0.1,0.3,0.2,0.3c0.1,0,0.1,0,0.2,0
		l0.1,0.3c-0.1,0-0.2,0.1-0.3,0.1C38.4,16.4,38.2,16.2,38.2,15.8"/>
	<path class="st0" d="M39.3,14.8h0.4v1.6h-0.4V14.8z M39.7,14.5h-0.4v-0.4h0.4V14.5z"/>
	<path class="st0" d="M39.9,15.6c0-0.5,0.4-0.8,0.8-0.8c0.4,0,0.8,0.3,0.8,0.8c0,0.5-0.4,0.8-0.8,0.8C40.3,16.4,39.9,16.1,39.9,15.6
		 M41,15.6c0-0.3-0.1-0.5-0.3-0.5s-0.3,0.2-0.3,0.5c0,0.3,0.1,0.5,0.3,0.5S41,15.9,41,15.6"/>
	<path class="st0" d="M41.7,14.8H42l0,0.2h0c0.1-0.1,0.3-0.2,0.5-0.2c0.3,0,0.5,0.2,0.5,0.6v1h-0.4v-0.9c0-0.2-0.1-0.3-0.2-0.3
		c-0.1,0-0.2,0.1-0.3,0.2v1.1h-0.4V14.8z"/>
</g>
</svg>
